<?xml version="1.0" standalone="no"?><!DOCTYPE svg PUBLIC "-//W3C//DTD SVG 1.1//EN" "http://www.w3.org/Graphics/SVG/1.1/DTD/svg11.dtd"><svg t="1565338255147" class="icon" viewBox="0 0 1024 1024" version="1.1" xmlns="http://www.w3.org/2000/svg" p-id="2369" xmlns:xlink="http://www.w3.org/1999/xlink" width="200" height="200"><defs><style type="text/css"></style></defs><path d="M796.444444 1024H227.555556a113.777778 113.777778 0 0 1-113.777778-113.777778V170.666667a113.777778 113.777778 0 0 1 113.777778-113.777778h113.777777v170.666667h341.333334V56.888889h113.777777a113.777778 113.777778 0 0 1 113.777778 113.777778v739.555555a113.777778 113.777778 0 0 1-113.777778 113.777778z m-170.666666-512H334.449778l112.355555-112.355556a28.444444 28.444444 0 1 0-40.220444-40.220444L245.646222 520.305778a28.444444 28.444444 0 0 0 0 40.220444l160.881778 160.881778a28.444444 28.444444 0 0 0 40.220444-40.220444L334.449778 568.888889H625.777778a113.777778 113.777778 0 0 1 0 227.555555H284.444444v56.888889h341.333334a170.666667 170.666667 0 0 0 0-341.333333z m-56.888889-341.333333H455.111111a56.888889 56.888889 0 0 1-56.888889-56.888889V56.888889a56.888889 56.888889 0 0 1 56.888889-56.888889h113.777778a56.888889 56.888889 0 0 1 56.888889 56.888889v56.888889a56.888889 56.888889 0 0 1-56.888889 56.888889z" fill="#8a8a8a" p-id="2370"></path></svg>