<?xml version="1.0" standalone="no"?><!DOCTYPE svg PUBLIC "-//W3C//DTD SVG 1.1//EN" "http://www.w3.org/Graphics/SVG/1.1/DTD/svg11.dtd"><svg t="1565338569509" class="icon" viewBox="0 0 1024 1024" version="1.1" xmlns="http://www.w3.org/2000/svg" p-id="3586" xmlns:xlink="http://www.w3.org/1999/xlink" width="200" height="200"><defs><style type="text/css"></style></defs><path d="M786.742365 485.310128c2.571568-2.571568 4.059456-6.252401 4.059456-9.890254L790.80182 168.186514c0-3.710508-1.650593-7.30743-4.308119-9.886161-2.561335-2.476401-6.072299-3.801583-9.632381-3.801583L469.13882 154.49877c-3.631714 0-7.312546 1.485841-9.884115 4.054339L169.279405 448.044386c-29.726022 29.729092-29.726022 78.251202 0 107.989503l219.510436 219.276099c29.754674 29.759791 78.240969 29.729092 107.980293 0l289.975301-289.997813L786.742365 485.310128 786.742365 485.310128zM592.07064 236.630349c16.021905-16.019859 37.059034-24.089651 58.049091-24.083511 20.989033 0.011256 42.025139 8.063653 58.042951 24.083511 32.04074 32.039717 32.04074 83.807754 0 115.847471-32.03767 32.04381-84.051301 32.039717-116.092042 0C560.03297 320.438103 560.033993 268.669042 592.07064 236.630349L592.07064 236.630349zM452.303386 612.80487l-45.702901-45.702901-37.545104 37.545104-23.51046-23.511483 37.545104-37.545104-47.381124-47.381124 18.951631-18.951631 47.382147 47.381124 25.790386-25.790386-47.382147-47.382147 18.7132-18.712177 40.423665 40.423665 35.386952-133.98762 26.508747 26.50977c-19.032472 65.095577-31.707143 105.756649-38.025035 121.991402l0.480954 0.480954c6.316869-2.957355 20.270672-7.715729 41.863457-14.274098l80.127945-23.749914 25.071002 25.069979-134.466528 34.904974 39.22435 39.226397-18.7132 18.712177-45.701878-45.700855-25.790386 25.791409 45.701878 45.701878-18.952654 18.953677L452.303386 612.80487 452.303386 612.80487zM876.726795 479.224526l-65.140603-300.392558c-0.537236-2.478448-1.810229-4.750187-3.548826-6.591115 1.732457 84.743056 0.264013 169.493276 0.760317 254.256798-2.438539 21.577434 5.15644 44.740994-4.309142 65.148789-93.623307 96.994078-190.490495 191.136202-285.670252 286.704814-11.227716 15.135722-27.146267 26.0237-44.86379 31.94148l73.254398 47.148833c35.383882 22.781866 82.928734 12.285814 105.699344-23.068392l221.792409-344.750835c1.967818-3.057639 2.798742-6.842849 2.028193-10.395768L876.726795 479.224526 876.726795 479.224526z" p-id="3587"></path></svg>